<?xml version="1.0" encoding="utf-8"?>
<!-- Uploaded to: SVG Repo, www.svgrepo.com, Generator: SVG Repo Mixer Tools -->
<svg width="800px" height="800px" viewBox="0 0 1024 1024" fill="#000000" class="icon"  version="1.1" xmlns="http://www.w3.org/2000/svg"><path d="M1015.918 959.942a7.994 7.994 0 0 1-7.998-8V504c0-4.42 3.576-7.998 7.998-7.998s8 3.578 8 7.998v447.942c0 4.422-3.578 8-8 8zM983.954 991.938H40.044a7.994 7.994 0 0 1-7.998-8 7.994 7.994 0 0 1 7.998-7.998h943.908c4.422 0 8 3.578 8 7.998a7.992 7.992 0 0 1-7.998 8zM8.048 959.942a7.994 7.994 0 0 1-7.998-8V440.008c0-4.42 3.578-8 7.998-8 4.422 0 8 3.578 8 8V951.94a7.996 7.996 0 0 1-8 8.002zM951.926 416.012a7.994 7.994 0 0 1-7.998-7.998V112.05H80.024v295.962c0 4.42-3.578 7.998-8 7.998s-8-3.578-8-7.998V104.052c0-4.422 3.578-8 8-8h879.9c4.422 0 8 3.578 8 8v303.96a7.992 7.992 0 0 1-7.998 8z" fill="" /><path d="M287.998 384.016c-61.742 0-111.986-50.236-111.986-111.984 0-61.75 50.244-111.986 111.986-111.986 61.742 0 111.984 50.236 111.984 111.986 0 61.748-50.242 111.984-111.984 111.984z m0-207.974c-52.932 0-95.988 43.056-95.988 95.988 0 52.93 43.056 95.986 95.988 95.986 52.93 0 95.986-43.056 95.986-95.986 0-52.93-43.056-95.988-95.986-95.988zM839.942 240.036H487.97a7.994 7.994 0 0 1-7.998-8 7.994 7.994 0 0 1 7.998-7.998H839.94c4.422 0 8 3.578 8 7.998a7.992 7.992 0 0 1-7.998 8zM839.942 288.03H487.97a7.994 7.994 0 0 1-7.998-8 7.994 7.994 0 0 1 7.998-7.998H839.94c4.422 0 8 3.578 8 7.998a7.992 7.992 0 0 1-7.998 8zM663.964 336.022h-175.994c-4.42 0-7.998-3.578-7.998-8s3.578-8 7.998-8h175.994c4.42 0 7.998 3.578 7.998 8s-3.578 8-7.998 8z" fill="" /><path d="M248.002 336.022a8 8 0 0 1-5.654-13.656l63.992-63.992a8 8 0 1 1 11.312 11.312l-63.992 63.992a7.976 7.976 0 0 1-5.658 2.344z" fill="" /><path d="M359.988 320.024a7.982 7.982 0 0 1-5.656-2.342l-47.994-47.994a8 8 0 1 1 11.312-11.312l47.994 47.994a8 8 0 0 1-5.656 13.654zM216.006 312.026a7.996 7.996 0 0 1-5.656-13.654l23.996-23.998a8 8 0 1 1 11.312 11.312l-23.998 23.996a7.968 7.968 0 0 1-5.654 2.344z" fill="" /><path d="M256.002 304.026a7.982 7.982 0 0 1-5.656-2.342l-15.998-15.998a8 8 0 1 1 11.312-11.312l15.998 15.998a8 8 0 0 1-5.656 13.654zM264 256.034c-13.232 0-23.996-10.764-23.996-23.998 0-13.232 10.764-23.996 23.996-23.996s23.998 10.764 23.998 23.996-10.766 23.998-23.998 23.998z m0-31.996a8.008 8.008 0 0 0-7.998 7.998c0 4.414 3.592 8 7.998 8 4.406 0 8-3.586 8-8a8.01 8.01 0 0 0-8-7.998zM40.044 480.004c-22.06 0-39.994-17.944-39.994-39.996 0-4.42 3.578-8 7.998-8 4.422 0 8 3.578 8 8 0 13.234 10.764 23.998 23.996 23.998 4.422 0 8 3.578 8 8s-3.578 7.998-8 7.998zM40.044 991.938c-22.06 0-39.994-17.936-39.994-39.996a7.994 7.994 0 0 1 7.998-7.998c4.422 0 8 3.578 8 7.998 0 13.234 10.764 23.998 23.996 23.998 4.422 0 8 3.578 8 7.998 0 4.422-3.578 8-8 8zM983.954 991.938a7.994 7.994 0 0 1-7.998-8 7.994 7.994 0 0 1 7.998-7.998c13.234 0 23.998-10.764 23.998-23.998 0-4.42 3.576-7.998 7.998-7.998s8 3.578 8 7.998c0 22.06-17.936 39.996-39.996 39.996zM1015.95 512a7.994 7.994 0 0 1-7.998-8c0-13.232-10.764-23.996-23.998-23.996-4.42 0-7.998-3.578-7.998-8s3.578-8 7.998-8c22.06 0 39.996 17.944 39.996 39.994a7.996 7.996 0 0 1-8 8.002zM1015.95 448.008a7.994 7.994 0 0 1-7.998-8c0-13.232-10.764-23.998-23.998-23.998a7.994 7.994 0 0 1-7.998-7.998c0-4.422 3.578-8 7.998-8 22.06 0 39.996 17.944 39.996 39.996 0 4.422-3.578 8-8 8z" fill="" /><path d="M8.048 448.008a7.994 7.994 0 0 1-7.998-8c0-22.052 17.934-39.996 39.994-39.996 4.422 0 8 3.578 8 8a7.994 7.994 0 0 1-8 7.998c-13.232 0-23.996 10.764-23.996 23.998 0 4.422-3.578 8-8 8z" fill="" /><path d="M983.954 480.004H40.044c-4.42 0-7.998-3.578-7.998-8s3.578-8 7.998-8h943.908c4.422 0 8 3.578 8 8s-3.576 8-7.998 8z" fill="" /><path d="M1015.95 464.006a7.994 7.994 0 0 1-7.998-8v-15.998c0-4.42 3.576-8 7.998-8s8 3.578 8 8v15.998c0 4.422-3.578 8-8 8z" fill="" /><path d="M967.926 448.008H56.028c-4.422 0-8-3.578-8-8s3.578-8 8-8h911.898c4.42 0 7.998 3.578 7.998 8s-3.578 8-7.998 8z" fill="" /><path d="M935.93 80.056H88.04c-4.422 0-8-3.578-8-8s3.578-8 8-8h847.89c4.42 0 7.998 3.578 7.998 8s-3.578 8-7.998 8z" fill="" /><path d="M919.932 48.06H104.038c-4.422 0-8-3.578-8-8a7.994 7.994 0 0 1 8-7.998h815.894a7.994 7.994 0 0 1 7.998 7.998c0 4.422-3.578 8-7.998 8z" fill="" /><path d="M967.926 527.998h-16.016a7.994 7.994 0 0 1-7.998-8 7.994 7.994 0 0 1 7.998-7.998h16.016a7.994 7.994 0 0 1 7.998 7.998c0 4.422-3.578 8-7.998 8z m-48.01 0H887.92c-4.422 0-8-3.578-8-8a7.994 7.994 0 0 1 8-7.998h31.996a7.994 7.994 0 0 1 7.998 7.998c0 4.422-3.578 8-7.998 8z m-63.992 0h-31.996a7.994 7.994 0 0 1-7.998-8 7.994 7.994 0 0 1 7.998-7.998h31.996a7.994 7.994 0 0 1 7.998 7.998c0 4.422-3.578 8-7.998 8z m-63.992 0h-31.996a7.994 7.994 0 0 1-7.998-8 7.994 7.994 0 0 1 7.998-7.998h31.996c4.422 0 8 3.578 8 7.998 0 4.422-3.578 8-8 8z m-63.99 0h-31.996c-4.422 0-8-3.578-8-8a7.994 7.994 0 0 1 8-7.998h31.996a7.994 7.994 0 0 1 7.998 7.998c0 4.422-3.578 8-7.998 8z m-63.992 0h-31.996c-4.422 0-8-3.578-8-8a7.994 7.994 0 0 1 8-7.998h31.996a7.994 7.994 0 0 1 7.998 7.998c0 4.422-3.578 8-7.998 8z m-63.992 0H567.96c-4.422 0-8-3.578-8-8a7.994 7.994 0 0 1 8-7.998h31.996c4.422 0 8 3.578 8 7.998a7.994 7.994 0 0 1-7.998 8z m-63.994 0h-31.996a7.994 7.994 0 0 1-7.998-8 7.994 7.994 0 0 1 7.998-7.998h31.996c4.422 0 8 3.578 8 7.998 0 4.422-3.578 8-8 8z m-63.99 0h-31.996c-4.42 0-8-3.578-8-8a7.994 7.994 0 0 1 8-7.998h31.996a7.998 7.998 0 1 1 0 15.998z m-63.992 0h-31.996c-4.422 0-8-3.578-8-8a7.994 7.994 0 0 1 8-7.998h31.996a7.994 7.994 0 0 1 7.998 7.998c0 4.422-3.578 8-7.998 8z m-63.992 0h-31.996c-4.422 0-8-3.578-8-8a7.994 7.994 0 0 1 8-7.998h31.996c4.42 0 8 3.578 8 7.998 0 4.422-3.578 8-8 8z m-63.992 0h-31.996a7.994 7.994 0 0 1-7.998-8 7.994 7.994 0 0 1 7.998-7.998h31.996c4.422 0 8 3.578 8 7.998 0 4.422-3.578 8-8 8z m-63.992 0H184.01c-4.42 0-8-3.578-8-8a7.994 7.994 0 0 1 8-7.998h31.996c4.42 0 8 3.578 8 7.998 0 4.422-3.578 8-8 8z m-63.99 0H120.02c-4.422 0-8-3.578-8-8a7.994 7.994 0 0 1 8-7.998h31.996a7.994 7.994 0 0 1 7.998 7.998c0 4.422-3.578 8-7.998 8z m-63.992 0H56.028c-4.422 0-8-3.578-8-8a7.994 7.994 0 0 1 8-7.998h31.996a7.998 7.998 0 1 1 0 15.998z" fill="" /><path d="M967.926 943.944h-16.016a7.994 7.994 0 0 1-7.998-7.998c0-4.422 3.578-8 7.998-8h16.016a7.994 7.994 0 0 1 7.998 8 7.994 7.994 0 0 1-7.998 7.998z m-48.01 0H887.92c-4.422 0-8-3.578-8-7.998 0-4.422 3.578-8 8-8h31.996a7.994 7.994 0 0 1 7.998 8 7.994 7.994 0 0 1-7.998 7.998z m-63.992 0h-31.996a7.994 7.994 0 0 1-7.998-7.998c0-4.422 3.576-8 7.998-8h31.996a7.994 7.994 0 0 1 7.998 8 7.994 7.994 0 0 1-7.998 7.998z m-63.992 0h-31.996a7.994 7.994 0 0 1-7.998-7.998c0-4.422 3.578-8 7.998-8h31.996c4.422 0 8 3.578 8 8a7.994 7.994 0 0 1-8 7.998z m-63.99 0h-31.996c-4.422 0-8-3.578-8-7.998 0-4.422 3.578-8 8-8h31.996a7.994 7.994 0 0 1 7.998 8 7.994 7.994 0 0 1-7.998 7.998z m-63.992 0h-31.996c-4.422 0-8-3.578-8-7.998 0-4.422 3.578-8 8-8h31.996a7.994 7.994 0 0 1 7.998 8 7.994 7.994 0 0 1-7.998 7.998z m-63.992 0H567.96c-4.422 0-8-3.578-8-7.998 0-4.422 3.578-8 8-8h31.996c4.422 0 8 3.578 8 8a7.994 7.994 0 0 1-7.998 7.998z m-63.994 0h-31.996a7.994 7.994 0 0 1-7.998-7.998c0-4.422 3.578-8 7.998-8h31.996c4.422 0 8 3.578 8 8a7.994 7.994 0 0 1-8 7.998z m-63.99 0h-31.996c-4.42 0-8-3.578-8-7.998 0-4.422 3.578-8 8-8h31.996c4.42 0 8 3.578 8 8a7.998 7.998 0 0 1-8 7.998z m-63.992 0h-31.996c-4.422 0-8-3.578-8-7.998 0-4.422 3.578-8 8-8h31.996a7.994 7.994 0 0 1 7.998 8 7.994 7.994 0 0 1-7.998 7.998z m-63.992 0h-31.996c-4.422 0-8-3.578-8-7.998 0-4.422 3.578-8 8-8h31.996c4.42 0 8 3.578 8 8a7.994 7.994 0 0 1-8 7.998z m-63.992 0h-31.996a7.994 7.994 0 0 1-7.998-7.998c0-4.422 3.578-8 7.998-8h31.996c4.422 0 8 3.578 8 8a7.994 7.994 0 0 1-8 7.998z m-63.992 0H184.01c-4.42 0-8-3.578-8-7.998 0-4.422 3.578-8 8-8h31.996c4.42 0 8 3.578 8 8a7.994 7.994 0 0 1-8 7.998z m-63.99 0H120.02c-4.422 0-8-3.578-8-7.998 0-4.422 3.578-8 8-8h31.996a7.994 7.994 0 0 1 7.998 8 7.994 7.994 0 0 1-7.998 7.998z m-63.992 0H56.028c-4.422 0-8-3.578-8-7.998 0-4.422 3.578-8 8-8h31.996c4.42 0 8 3.578 8 8a7.998 7.998 0 0 1-8 7.998z" fill="" /><path d="M511.984 783.964c-73.678 0-151.98-19.624-151.98-55.992 0-36.372 78.302-55.994 151.98-55.994s151.98 19.624 151.98 55.994c0 36.37-78.302 55.992-151.98 55.992z m0-95.988c-84.256 0-135.982 23.292-135.982 39.996 0 16.7 51.726 39.994 135.982 39.994 84.254 0 135.982-23.294 135.982-39.994 0-16.702-51.728-39.996-135.982-39.996z" fill="" /><path d="M575.976 735.97h-127.984c-4.422 0-8-3.578-8-7.998 0-4.422 3.578-8 8-8h127.984a7.994 7.994 0 0 1 7.998 8 7.994 7.994 0 0 1-7.998 7.998z" fill="" /></svg>