<?xml version="1.0" encoding="utf-8"?>
<!-- Uploaded to: SVG Repo, www.svgrepo.com, Generator: SVG Repo Mixer Tools -->
<svg width="800px" height="800px" viewBox="0 0 1024 1024" fill="#000000" class="icon"  version="1.1" xmlns="http://www.w3.org/2000/svg"><path d="M653.92 690.726a7.968 7.968 0 0 1-7.858-6.59l-66.656-377.992a7.97 7.97 0 0 1 6.482-9.26c4.294-0.834 8.496 2.132 9.26 6.482l66.658 377.99a7.976 7.976 0 0 1-6.482 9.246 7.09 7.09 0 0 1-1.404 0.124zM662.26 737.986a7.964 7.964 0 0 1-7.856-6.592c-7.28-41.2-205.986-61.034-329.53-63.876a7.982 7.982 0 0 1-7.816-8.168c0.102-4.422 3.662-7.732 8.176-7.826 55.552 1.282 333.248 10.964 344.914 77.09a7.976 7.976 0 0 1-6.482 9.246 6.978 6.978 0 0 1-1.406 0.126z" fill="" /><path d="M286.158 447.034a7.996 7.996 0 0 1-2.156-15.696c84.134-23.668 299.714-100.798 287.096-172.454a7.97 7.97 0 0 1 6.482-9.26 7.98 7.98 0 0 1 9.26 6.482c7.624 43.278-41.09 88.662-144.77 134.9-74.95 33.43-152.962 55.514-153.742 55.732a8.026 8.026 0 0 1-2.17 0.296z" fill="" /><path d="M578.954 265.492a7.974 7.974 0 0 1-7.856-6.608 7.97 7.97 0 0 1 6.482-9.26l31.484-5.56c4.358-0.796 8.496 2.124 9.262 6.48a7.996 7.996 0 0 1-6.48 9.262l-31.486 5.56a7.61 7.61 0 0 1-1.406 0.126z" fill="" /><path d="M693.746 732.426a7.966 7.966 0 0 1-7.858-6.59l-83.304-472.51a7.974 7.974 0 0 1 6.48-9.262c4.358-0.796 8.496 2.124 9.262 6.48l83.306 472.51a7.976 7.976 0 0 1-6.482 9.246 7.106 7.106 0 0 1-1.404 0.126z" fill="" /><path d="M662.26 737.986a7.964 7.964 0 0 1-7.856-6.592 7.992 7.992 0 0 1 6.48-9.276l31.486-5.56c4.294-0.812 8.496 2.14 9.262 6.496a7.976 7.976 0 0 1-6.482 9.246l-31.486 5.56a6.946 6.946 0 0 1-1.404 0.126zM151.796 698.066a7.98 7.98 0 0 1-7.864-6.59L105.044 470.992a7.986 7.986 0 0 1 6.482-9.262l173.248-30.564c4.302-0.82 8.496 2.124 9.262 6.482a7.982 7.982 0 0 1-6.48 9.26l-165.378 29.182 36.116 204.734 165.37-29.174a7.966 7.966 0 0 1 9.262 6.498 7.966 7.966 0 0 1-6.482 9.246L153.194 697.94a6.94 6.94 0 0 1-1.398 0.126z" fill="" /><path d="M151.804 698.066c-0.274 0-0.554 0-0.828-0.032l-115.806-12.056a8.006 8.006 0 0 1-7.044-6.558L0.358 521.922a7.992 7.992 0 0 1 4.374-8.582l104.686-50.93a7.904 7.904 0 0 1 7.13 0.07 7.966 7.966 0 0 1 4.24 5.73l38.888 220.484a8.004 8.004 0 0 1-2.022 6.842 7.99 7.99 0 0 1-5.85 2.53z m-108.98-27.376l99.268 10.338-35.212-199.596-89.724 43.652 25.668 145.606zM319.486 636.034a7.98 7.98 0 0 1-7.864-6.592l-27.768-157.512a7.986 7.986 0 0 1 6.482-9.262c4.318-0.828 8.504 2.132 9.262 6.482l27.768 157.514a7.964 7.964 0 0 1-6.48 9.246c-0.47 0.092-0.94 0.124-1.4 0.124z" fill="" /><path d="M45.284 554.476a8.02 8.02 0 0 1-7.036-4.186 7.982 7.982 0 0 1 3.216-10.838l44.48-24.092a8.008 8.008 0 0 1 10.838 3.216 8 8 0 0 1-3.216 10.848l-44.48 24.082a7.934 7.934 0 0 1-3.802 0.97zM111.972 656.368c-0.39 0-0.782-0.032-1.18-0.078l-50.024-7.402a7.986 7.986 0 0 1-6.74-9.074c0.648-4.374 4.724-7.34 9.082-6.746l50.024 7.402a7.99 7.99 0 1 1-1.162 15.898zM53.608 601.706a7.98 7.98 0 0 1-7.864-6.592 8.004 8.004 0 0 1 6.482-9.276l47.244-8.308c4.342-0.796 8.496 2.124 9.26 6.464a8.006 8.006 0 0 1-6.482 9.278l-47.244 8.308a7.066 7.066 0 0 1-1.396 0.126zM127.276 466.93a7.988 7.988 0 0 1-7.864-6.606 7.986 7.986 0 0 1 6.482-9.262l31.5-5.56c4.334-0.828 8.496 2.132 9.262 6.482a7.986 7.986 0 0 1-6.482 9.262l-31.5 5.56a7.728 7.728 0 0 1-1.398 0.124zM388.016 932.492a7.976 7.976 0 0 1-7.308-4.734l-80.572-180.666a7.984 7.984 0 0 1 4.044-10.556c4.038-1.828 8.77 0.016 10.556 4.042l80.574 180.668a7.986 7.986 0 0 1-7.294 11.246zM293.512 949.172a8.02 8.02 0 0 1-7.308-4.748l-80.572-180.668a7.996 7.996 0 0 1 14.602-6.514l80.572 180.668a7.986 7.986 0 0 1-4.044 10.558 7.74 7.74 0 0 1-3.25 0.704z" fill="" /><path d="M277.74 951.952a7.994 7.994 0 0 1-7.864-6.624 7.962 7.962 0 0 1 6.48-9.244l126.006-22.24c4.358-0.812 8.496 2.138 9.26 6.496a7.966 7.966 0 0 1-6.482 9.246l-126.004 22.24a8.522 8.522 0 0 1-1.396 0.126zM175.88 742.546a7.98 7.98 0 0 1-7.864-6.59l-3.124-17.71a8.006 8.006 0 0 1 6.482-9.278c4.326-0.844 8.496 2.138 9.262 6.496l3.124 17.71a7.966 7.966 0 0 1-6.482 9.246 6.952 6.952 0 0 1-1.398 0.126z" fill="" /><path d="M175.88 742.546a7.994 7.994 0 0 1-1.36-15.868l157.584-27.27a7.982 7.982 0 0 1 9.246 6.512 7.996 7.996 0 0 1-6.512 9.246l-157.584 27.27a8.02 8.02 0 0 1-1.374 0.11z" fill="" /><path d="M333.464 715.278a7.98 7.98 0 0 1-7.864-6.59l-2.782-15.774a7.966 7.966 0 0 1 6.482-9.246c4.294-0.796 8.504 2.124 9.262 6.464l2.78 15.774a7.964 7.964 0 0 1-6.482 9.246 7.052 7.052 0 0 1-1.396 0.126z" fill="" /><path d="M727.872 184.294c-4.406 0-8.076-3.576-8.076-7.996s3.498-7.998 7.92-7.998h0.156c4.418 0 7.996 3.578 7.996 7.998s-3.578 7.996-7.996 7.996z" fill="" /><path d="M775.848 184.294c-4.404 0-8.074-3.576-8.074-7.996s3.498-7.998 7.918-7.998h0.156c4.42 0 7.996 3.578 7.996 7.998s-3.576 7.996-7.996 7.996z" fill="" /><path d="M855.344 855.996c-57.318 0-103.954-46.636-103.954-103.954 0-57.318 46.634-103.954 103.954-103.954 57.316 0 103.952 46.634 103.952 103.954-0.002 57.318-46.636 103.954-103.952 103.954z m0-191.914c-48.51 0-87.96 39.452-87.96 87.96 0 48.492 39.452 87.958 87.96 87.958 48.492 0 87.958-39.466 87.958-87.958 0-48.508-39.466-87.96-87.958-87.96z" fill="" /><path d="M751.39 280.25c-44.09 0-79.962-35.874-79.962-79.962s35.874-79.962 79.962-79.962 79.962 35.874 79.962 79.962c0.002 44.088-35.872 79.962-79.962 79.962z m0-143.934c-35.282 0-63.97 28.698-63.97 63.97s28.69 63.97 63.97 63.97c35.266 0 63.97-28.698 63.97-63.97s-28.704-63.97-63.97-63.97z" fill="" /><path d="M879.832 600.114c-79.372 0-143.934-64.582-143.934-143.944s64.562-143.934 143.934-143.934c79.354 0 143.934 64.572 143.934 143.934s-64.58 143.944-143.934 143.944z m0-271.886c-70.546 0-127.942 57.396-127.942 127.942s57.394 127.95 127.942 127.95c70.544 0 127.942-57.404 127.942-127.95s-57.398-127.942-127.942-127.942z" fill="" /><path d="M855.344 810.672a7.818 7.818 0 0 1-3.25-0.688c-2.154-0.954-52.724-23.926-52.724-65.938 0-19.118 15.54-34.672 34.638-34.672 7.874 0 15.292 2.638 21.32 7.402a34.138 34.138 0 0 1 21.316-7.402c19.118 0 34.672 15.554 34.672 34.672 0 42.012-50.57 64.984-52.724 65.938a7.816 7.816 0 0 1-3.248 0.688z m-21.336-85.304c-10.292 0-18.646 8.386-18.646 18.68 0 26.536 29.892 44.448 39.966 49.71 10.056-5.294 39.996-23.286 39.996-49.71 0-10.292-8.386-18.68-18.68-18.68-5.886 0-11.306 2.78-14.882 7.59a7.972 7.972 0 0 1-6.402 3.25h-0.016a8.044 8.044 0 0 1-6.42-3.218c-3.592-4.844-9.028-7.622-14.916-7.622z" fill="" /><path d="M935.806 520.14h-63.97a7.998 7.998 0 0 1-5.654-2.342l-13.65-13.65h-12.682a7.99 7.99 0 0 1-7.996-7.996v-47.978a7.99 7.99 0 0 1 7.996-7.996c-0.062 0 10.762-0.602 26.832-14.12 17.226-14.494 29.612-44.566 29.736-44.87a7.996 7.996 0 0 1 7.402-4.982h15.992a7.99 7.99 0 0 1 7.996 7.996v39.982h7.998c2.124 0 4.154 0.844 5.654 2.342 19.194 19.194 19.194 72.076 0 91.272a7.998 7.998 0 0 1-5.654 2.342z m-60.66-15.992h56.974c10.198-14.198 10.198-49.774 0-63.97h-12.308a7.992 7.992 0 0 1-7.996-7.996V392.2h-2.78c-4.638 10.058-16.258 32.798-32.048 46.096-12.292 10.332-22.536 14.698-29.142 16.54v33.32h7.998c2.124 0 4.152 0.844 5.652 2.342l13.65 13.65z" fill="" /><path d="M839.85 520.14h-47.978a7.992 7.992 0 0 1-7.996-7.996v-79.962a7.994 7.994 0 0 1 7.996-7.998h47.978a7.992 7.992 0 0 1 7.996 7.998v79.962a7.99 7.99 0 0 1-7.996 7.996z m-39.982-15.992h31.986v-63.97h-31.986v63.97z" fill="" /><path d="M751.39 248.266c-25.3 0-31.984-15.688-31.984-23.99a7.992 7.992 0 0 1 7.996-7.998 8.01 8.01 0 0 1 7.996 7.802c0.094 1.444 1.388 8.192 15.992 8.192 14.71 0 15.898-6.856 15.992-8.222 0.282-4.302 4.514-7.504 8.246-7.622 4.31 0.14 7.746 3.53 7.746 7.848 0.002 8.302-6.682 23.99-31.984 23.99z" fill="" /><path d="M959.794 199.99c-35.282 0-63.97-28.698-63.97-63.97s28.69-63.97 63.97-63.97c35.266 0 63.97 28.698 63.97 63.97 0.002 35.272-28.704 63.97-63.97 63.97z m0-111.948c-26.458 0-47.978 21.52-47.978 47.978s21.522 47.978 47.978 47.978 47.978-21.522 47.978-47.978-21.52-47.978-47.978-47.978z" fill="" /><path d="M959.794 231.976c-35.282 0-63.97-28.698-63.97-63.97 0-4.42 3.576-7.998 7.996-7.998s7.996 3.578 7.996 7.998c0 26.456 21.522 47.978 47.978 47.978s47.978-21.522 47.978-47.978c0-4.42 3.576-7.998 7.996-7.998s7.996 3.578 7.996 7.998c0.002 35.272-28.704 63.97-63.97 63.97z" fill="" /><path d="M959.794 168.006a7.992 7.992 0 0 1-7.996-7.998V112.032c0-4.42 3.576-7.996 7.996-7.996s7.996 3.576 7.996 7.996v47.978a7.99 7.99 0 0 1-7.996 7.996z" fill="" /><path d="M983.786 144.016L935.806 144a7.998 7.998 0 1 1 0-15.992l47.978 0.016a7.998 7.998 0 0 1 0.002 15.992zM903.82 176.002a7.992 7.992 0 0 1-7.996-7.996V136.02c0-4.42 3.576-7.996 7.996-7.996s7.996 3.576 7.996 7.996v31.986a7.992 7.992 0 0 1-7.996 7.996zM1015.77 176.002a7.992 7.992 0 0 1-7.996-7.996V136.02c0-4.42 3.576-7.996 7.996-7.996s7.996 3.576 7.996 7.996v31.986a7.992 7.992 0 0 1-7.996 7.996z" fill="" /></svg>