<?xml version="1.0" encoding="utf-8"?>
<!-- Uploaded to: SVG Repo, www.svgrepo.com, Generator: SVG Repo Mixer Tools -->
<svg width="800px" height="800px" viewBox="0 0 1024 1024" fill="#000000" class="icon"  version="1.1" xmlns="http://www.w3.org/2000/svg"><path d="M233.79 240.016c-30.874 0-55.996-25.124-55.996-55.998s25.124-55.996 55.996-55.996 55.998 25.124 55.998 55.996-25.126 55.998-55.998 55.998z m0-95.994c-22.052 0-39.998 17.944-39.998 39.998s17.944 39.998 39.998 39.998 39.998-17.944 39.998-39.998-17.946-39.998-39.998-39.998z" fill="" /><path d="M233.79 272.014c-30.874 0-55.996-25.124-55.996-55.998 0-4.42 3.578-8 8-8 4.42 0 8 3.578 8 8 0 22.054 17.944 39.998 39.998 39.998s39.998-17.944 39.998-39.998c0-4.42 3.578-8 8-8 4.42 0 8 3.578 8 8-0.004 30.874-25.128 55.998-56 55.998z" fill="" /><path d="M233.79 208.018c-4.422 0-8-3.578-8-8V168.022c0-4.422 3.578-8 8-8s8 3.578 8 8v31.998c0 4.42-3.58 7.998-8 7.998zM185.792 224.018c-4.422 0-8-3.578-8-8V184.02c0-4.42 3.578-8 8-8 4.42 0 8 3.578 8 8v31.998c0 4.422-3.578 8-8 8zM281.788 224.018c-4.422 0-8-3.578-8-8V184.02c0-4.42 3.578-8 8-8 4.42 0 8 3.578 8 8v31.998a7.998 7.998 0 0 1-8 8zM753.766 96.026c-26.466 0-47.998-21.53-47.998-47.998S727.3 0.03 753.766 0.03s47.998 21.53 47.998 47.998-21.532 47.998-47.998 47.998z m0-79.996c-17.654 0-31.998 14.35-31.998 31.998s14.344 31.998 31.998 31.998c17.624 0 31.998-14.35 31.998-31.998s-14.376-31.998-31.998-31.998z" fill="" /><path d="M753.766 128.024c-26.466 0-47.998-21.53-47.998-47.998 0-4.42 3.562-8 8-8 4.406 0 8 3.578 8 8 0 17.648 14.344 31.998 31.998 31.998 17.624 0 31.998-14.35 31.998-31.998 0-4.42 3.562-8 8-8 4.406 0 8 3.578 8 8 0 26.468-21.532 47.998-47.998 47.998z" fill="" /><path d="M713.768 86.026c-4.438 0-8-3.578-8-8V48.028c0-4.42 3.562-8 8-8 4.406 0 8 3.578 8 8v29.998c0 4.422-3.594 8-8 8zM793.764 87.276c-4.438 0-8-3.578-8-8V48.028c0-4.42 3.562-8 8-8 4.406 0 8 3.578 8 8v31.248c0 4.422-3.594 8-8 8zM753.766 64.028c-4.438 0-8-3.578-8-8v-15.998c0-4.422 3.562-8 8-8 4.406 0 8 3.578 8 8v15.998c0 4.422-3.594 8-8 8zM105.796 623.992c-4.422 0-8-3.578-8-7.998 0-197.372 175.692-351.978 399.976-351.978 4.422 0 8 3.578 8 8s-3.578 8-8 8c-215.314 0-383.976 147.578-383.976 335.98a7.994 7.994 0 0 1-8 7.996zM857.728 751.984a7.976 7.976 0 0 1-7.812-6.436c-0.876-4.328 1.938-8.532 6.282-9.406 74.684-14.936 91.87-29.81 92.056-29.966 3.218-2.876 8.216-2.782 11.216 0.376s3 8.032-0.062 11.094c-1.812 1.812-20.03 18.17-100.086 34.184a7.958 7.958 0 0 1-1.594 0.154zM953.754 559.996a7.942 7.942 0 0 1-5.376-2.078c-0.062-0.032-17.966-14.452-92.276-30.09-4.312-0.906-7.094-5.156-6.188-9.476s5.218-7.094 9.468-6.18c78.994 16.624 97.836 32.186 99.742 33.904a7.984 7.984 0 0 1 0.532 11.294 7.89 7.89 0 0 1-5.902 2.626z" fill="" /><path d="M953.754 719.988c-4.438 0-8-3.578-8-8v-159.99c0-4.422 3.562-8 8-8a8.006 8.006 0 0 1 7.998 8v159.99c0 4.422-3.594 8-7.998 8zM713.736 914.976a8.016 8.016 0 0 1-7.844-6.532 7.98 7.98 0 0 1 6.376-9.328c135.554-25.482 137.46-149.852 137.492-155.13 0-4.422 3.594-8 8-8 4.406 0.016 8 3.594 8 8 0 1.422-1.718 142.866-150.524 170.85-0.5 0.094-1 0.14-1.5 0.14zM857.728 528a7.99 7.99 0 0 1-7.844-6.594c-11.656-65.136-40.654-116.612-75.746-134.32-3.938-1.992-5.5-6.804-3.532-10.75 2-3.946 6.844-5.538 10.75-3.532 40.06 20.234 71.558 74.738 84.278 145.79a7.996 7.996 0 0 1-7.906 9.406zM569.808 286.06a8.7 8.7 0 0 1-1.344-0.11 422.88 422.88 0 0 0-70.692-5.938c-4.422 0-8-3.578-8-8s3.578-8 8-8a439.46 439.46 0 0 1 73.378 6.156 7.998 7.998 0 0 1 6.53 9.234 7.98 7.98 0 0 1-7.872 6.658z" fill="" /><path d="M760.734 416.006a7.972 7.972 0 0 1-7.906-7.04c-9.718-80.26 16.404-145.374 28.404-170.24-38.06-2.944-159.896-3.1-204.02 108.228a8.032 8.032 0 0 1-10.404 4.492 8 8 0 0 1-4.468-10.382c56.184-141.732 230.892-117.172 232.612-116.96a8.044 8.044 0 0 1 6.032 4.46 8.16 8.16 0 0 1-0.312 7.5c-0.438 0.742-43.498 75.69-31.968 170.982a8 8 0 0 1-7.97 8.96zM537.748 1023.968a8.008 8.008 0 0 1-7.906-6.844l-15.984-108.992a7.974 7.974 0 0 1 6.75-9.062c4.438-0.718 8.438 2.376 9.078 6.75l16 108.992a7.96 7.96 0 0 1-6.75 9.062 7.432 7.432 0 0 1-1.188 0.094z" fill="" /><path d="M713.768 1023.968H537.78c-4.438 0-8-3.578-8-8s3.562-8 8-8h175.988c4.406 0 8 3.578 8 8s-3.594 8-8 8z" fill="" /><path d="M713.768 1023.968c-0.376 0-0.782-0.032-1.156-0.094a8.004 8.004 0 0 1-6.782-9.062l16-108.992c0.656-4.376 4.812-7.39 9.094-6.75a7.96 7.96 0 0 1 6.75 9.062l-16 108.992a8.006 8.006 0 0 1-7.906 6.844zM281.78 1023.968a8 8 0 0 1-7.914-6.876l-16-111.992a7.994 7.994 0 0 1 6.788-9.046c4.336-0.64 8.422 2.422 9.054 6.796l16 111.992a7.994 7.994 0 0 1-7.928 9.126z" fill="" /><path d="M457.776 1023.968h-175.988c-4.422 0-8-3.578-8-8s3.578-8 8-8h175.988c4.422 0 8 3.578 8 8s-3.578 8-8 8z" fill="" /><path d="M457.784 1023.968c-0.382 0-0.774-0.032-1.172-0.094a7.976 7.976 0 0 1-6.75-9.062l16-108.992c0.64-4.376 4.632-7.5 9.078-6.75a7.978 7.978 0 0 1 6.75 9.062l-16 108.992a8 8 0 0 1-7.906 6.844z" fill="" /><path d="M281.788 911.976c-0.922 0-1.86-0.156-2.774-0.5-189.136-69.934-181.31-293.592-181.208-295.842 0.204-4.422 4.374-7.532 8.342-7.64a8.01 8.01 0 0 1 7.64 8.344c-0.094 2.156-7.296 214.284 170.77 280.138a7.988 7.988 0 0 1 4.726 10.282 7.996 7.996 0 0 1-7.496 5.218z" fill="" /><path d="M105.812 496a8.014 8.014 0 0 1-5.632-2.312c-73.65-72.948-17.466-153.53-16.888-154.334a8.03 8.03 0 0 1 9.664-2.688 8.01 8.01 0 0 1 4.696 8.874c-0.46 2.382-10.584 58.652 43.88 87.386a8.006 8.006 0 0 1 3.344 10.812 8.008 8.008 0 0 1-10.812 3.344c-34.748-18.334-47.292-46.668-51.418-69.23-7.976 26.14-9.93 66.106 28.802 104.462A7.996 7.996 0 1 1 105.812 496z" fill="" /><path d="M361.782 272.014c-4.422 0-8-3.578-8-8V56.028c0-4.42 3.578-8 8-8s8 3.578 8 8v207.988a7.994 7.994 0 0 1-8 7.998z" fill="" /><path d="M633.774 64.028H361.782c-4.422 0-8-3.578-8-8 0-4.42 3.578-8 8-8h271.992a8.006 8.006 0 0 1 7.998 8c0 4.422-3.594 8-7.998 8z" fill="" /><path d="M633.774 224.018c-4.438 0-8-3.578-8-8V56.028c0-4.42 3.562-8 8-8a8.006 8.006 0 0 1 7.998 8v159.99c0 4.422-3.594 8-7.998 8z" fill="" /><path d="M601.776 256.016c-4.438 0-8-3.578-8-8V110.658a24.082 24.082 0 0 1-14.624-14.632h-162.74a24.114 24.114 0 0 1-14.632 14.632v137.358c0 4.422-3.578 8-8 8s-8-3.578-8-8V104.026c0-4.422 3.578-8 8-8 4.414 0 8-3.586 8-8 0-4.42 3.578-8 8-8h175.996c4.406 0 8 3.578 8 8 0 4.414 3.594 8 8 8s8 3.578 8 8v143.99c0 4.422-3.594 8-8 8z" fill="" /><path d="M553.778 256.016a7.984 7.984 0 0 1-7.998-8c0-22.052-17.954-39.998-40.006-39.998-22.054 0-39.998 17.944-39.998 39.998 0 4.422-3.578 8-8 8s-8-3.578-8-8c0-30.874 25.124-55.996 55.998-55.996 30.88 0 56.004 25.124 56.004 55.996 0 4.422-3.594 8-8 8z" fill="" /><path d="M497.774 783.984c-4.422 0-8-3.578-8-8v-335.98c0-4.42 3.578-8 8-8s8 3.578 8 8v335.98c0 4.422-3.578 8-8 8z" fill="" /><path d="M553.778 735.986H409.78c-4.422 0-8-3.578-8-8a7.994 7.994 0 0 1 8-7.998h143.998c13 0 22.374-3.204 24.53-8.344 2.124-5.156-2.25-14.062-11.436-23.25l-149.156-133.178c-19.858-19.828-18.046-34.17-15.226-40.982 2.82-6.804 11.67-18.234 39.288-18.234h143.998c4.406 0 8 3.578 8 8 0 4.422-3.594 8-8 8h-143.998c-12.984 0-22.366 3.204-24.506 8.36-2.132 5.156 2.25 14.044 11.428 23.232l149.138 133.18c19.876 19.842 18.062 34.17 15.25 40.982-2.812 6.81-11.688 18.232-39.31 18.232z" fill="" /><path d="M537.78 914.976h-80.004c-4.422 0-8-3.578-8-8s3.578-8 8-8h80.004c4.406 0 8 3.578 8 8s-3.594 8-8 8z" fill="" /></svg>